<mxfile
  host="Electron" 
  agent="Mozilla/5.0 (Macintosh; Intel Mac OS X 10_15_7) AppleWebKit/537.36 (KHTML, like Gecko) draw.io/25.0.2 Chrome/128.0.6613.186 Electron/32.2.5 Safari/537.36" 
  version="25.0.2"
  >
  <diagram
    name="-"
    >
    <mxGraphModel
      grid="1" 
      gridSize="10" 
      guides="1" 
      tooltips="1" 
      connect="1" 
      arrows="1" 
      fold="1" 
      page="1" 
      pageScale="1" 
      pageWidth="1" 
      pageHeight="1" 
      math="0" 
      shadow="0"
      >
      <root>
        <mxCell
          id="page"
          />
        <mxCell
          id="root" 
          parent="page"
          />
        <mxCell
          style="verticalAlign=top;aspect=fixed;align=center;spacingLeft=5;spacingRight=5;spacingBottom=5;strokeColor=none;" 
          id="shape_" 
          parent="root" 
          value=" " 
          vertex="1"
          >
          <mxGeometry
            as="geometry" 
            width="82" 
            height="88" 
            x="0" 
            y="0"
            />
          </mxCell>
        <mxCell
          style="rounded=1;whiteSpace=wrap;verticalAlign=top;align=center;shape=image;editableCssRules=.*;verticalLabelPosition=bottom;labelBackgroundColor=default;aspect=fixed;imageAspect=0;image=data:image/svg+xml,PHN2ZyB4bWxucz0iaHR0cDovL3d3dy53My5vcmcvMjAwMC9zdmciIHZpZXdCb3g9Ii0wLjUgLTAuNSAyMi40MSAyOCIgaGVpZ2h0PSIyOCIgd2lkdGg9IjIyLjQxIj4mI3hhOwkgIDxzdHlsZSB0eXBlPSJ0ZXh0L2NzcyI+LnN0MCB7IHN0b3AtY29sb3I6IHJnYig5MSwgMTE1LCAxMzkpOyB9IC5zdDEgeyBzdG9wLWNvbG9yOiByZ2IoMzQsIDUzLCA3Mik7IH0gPC9zdHlsZT4mI3hhOwk8ZGVmcz4mI3hhOwkJPGxpbmVhckdyYWRpZW50IGdyYWRpZW50VW5pdHM9InVzZXJTcGFjZU9uVXNlIiB5Mj0iMjAuNTk4IiB4Mj0iMjIuNTE2IiB5MT0iMy40NzQiIHgxPSIxLjUzMiIgaWQ9IkEiPiYjeGE7CQkJPHN0b3AgY2xhc3M9InN0MCIvPiYjeGE7CQkJPHN0b3AgY2xhc3M9InN0MSIgb2Zmc2V0PSIxIi8+JiN4YTsJCTwvbGluZWFyR3JhZGllbnQ+JiN4YTsJPC9kZWZzPiYjeGE7CTxwYXRoIGZpbGw9InVybCgjQSkiIGQ9Ik0xNy42OTEgMTAuNjc4YzEuMjA2IDAgMi4yMDkuNDIxIDMuMDE0IDEuMjYxLjgwMy44MDMgMS4yMDUgMS43ODggMS4yMDUgMi45NnY4LjM4MWMwIDEuMjA2LS40MDEgMi4yMTEtMS4yMDUgMy4wMTZTMTguODk4IDI3LjUgMTcuNjkxIDI3LjVIMy43MTljLTEuMjA1IDAtMi4yMDktLjQwMy0zLjAxMi0xLjIwNlMtLjUgMjQuNDg4LS41IDIzLjI4MXYtOC4zODNjMC0xLjE2OS40MDMtMi4xNTcgMS4yMDYtMi45Ni44MDMtLjg0MiAxLjgwNi0xLjI2MSAzLjAxMi0xLjI2MVY2LjUxNGMwLS45ODUuMTgyLTEuODk5LjU0OS0yLjczOS4zNjUtLjg3Ny44NTktMS42MjUgMS40NzgtMi4yNDZTNy4wOTcuNDE0IDcuOTM3LjA0OSA5LjY5MS0uNSAxMC42NzgtLjVzMS44OTkuMTgyIDIuNzQxLjU0OWMuODc3LjM2NSAxLjYyNS44NTkgMi4yNDQgMS40OHMxLjExNSAxLjM2OCAxLjQ4MiAyLjI0NGMuMzY1Ljg0Mi41NDcgMS43NTMuNTQ3IDIuNzQxem0tMTEuMTc4IDBoOC4zODNWNi41MTRjMC0xLjIwNS0uNDAyLTIuMjA5LTEuMjA1LTMuMDEycy0xLjgwOC0xLjIwOC0zLjAxNC0xLjIwOGMtMS4xNjkgMC0yLjE1Ny40MDMtMi45NiAxLjIwNlM2LjUxNCA1LjMwNSA2LjUxNCA2LjUxMnptMTIuNjAzIDQuMjJhMS4yNSAxLjI1IDAgMCAwLS40MzgtLjk4N2MtLjEzLS4xMjgtLjI4NC0uMjI4LS40NTQtLjI5NHMtLjM1MS0uMDk3LS41MzMtLjA5SDMuNzE5Yy0uOTQ5IDAtMS40MjQuNDU2LTEuNDI0IDEuMzcxdjguMzgxYzAgLjk1LjQ3MyAxLjQyNSAxLjQyNCAxLjQyNWgxMy45NzNjLjQwMyAwIC43MzEtLjEyOC45ODctLjM4Mi4yOTEtLjI1Ni40MzgtLjYwMy40MzgtMS4wNDF6bS04LjQzOSAxLjQyMmMuODAzIDAgMS40NjEuMjc0IDEuOTczLjgyMi41NDkuNTEuODIyIDEuMTY4LjgyMiAxLjk3M2EyLjY5IDIuNjkgMCAwIDEtLjgyMiAxLjk3M2MtLjUxMi41NDctMS4xNjkuODIyLTEuOTczLjgyMi0uNzY4IDAtMS40MjUtLjI3NS0xLjk3My0uODI0YTIuNjkgMi42OSAwIDAgMS0uODIyLTEuOTcxYzAtLjgwNS4yNzUtMS40NjIuODIyLTEuOTczYTIuNjkgMi42OSAwIDAgMSAxLjk3My0uODIyeiIvPiYjeGE7PC9zdmc+;strokeColor=none;" 
          id="locked_non_sap_" 
          parent="shape_" 
          value=" " 
          vertex="1"
          >
          <mxGeometry
            width="22" 
            height="28" 
            as="geometry" 
            x="30" 
            y="30"
            />
          </mxCell>
        </root>
      </mxGraphModel>
    </diagram>
  </mxfile>